<svg width="135" height="73" viewBox="0 0 135 73" fill="none" xmlns="http://www.w3.org/2000/svg">
<path d="M4.635 59.57L3.12 64.04H6.135L4.635 59.57ZM0.075 68V67.385L1.335 67.19L4.53 57.89H5.475L8.67 67.25L9.795 67.385V68H5.715V67.385L7.185 67.205L6.36 64.745H2.88L2.04 67.19L3.51 67.385V68H0.075ZM16.5369 68.195C16.0169 68.195 15.6019 68.055 15.2919 67.775C14.9819 67.495 14.8269 67.065 14.8269 66.485C14.8269 66.295 14.8269 66.11 14.8269 65.93C14.8369 65.74 14.8419 65.5 14.8419 65.21V61.67H13.5969V61.01L14.9319 60.845L15.3219 58.835H16.2219L16.1319 60.875H18.1569V61.67H16.1169V66.32C16.1169 66.7 16.1919 66.98 16.3419 67.16C16.4919 67.33 16.6919 67.415 16.9419 67.415C17.1119 67.415 17.2719 67.38 17.4219 67.31C17.5819 67.24 17.7569 67.14 17.9469 67.01L18.3069 67.4C17.8969 67.93 17.3069 68.195 16.5369 68.195ZM22.4498 68.195C21.8698 68.195 21.3148 68.06 20.7848 67.79C20.2648 67.51 19.8398 67.095 19.5098 66.545C19.1798 65.985 19.0148 65.295 19.0148 64.475C19.0148 63.645 19.1798 62.95 19.5098 62.39C19.8398 61.82 20.2648 61.395 20.7848 61.115C21.3148 60.825 21.8698 60.68 22.4498 60.68C23.0298 60.68 23.5798 60.825 24.0998 61.115C24.6298 61.395 25.0598 61.82 25.3898 62.39C25.7298 62.95 25.8998 63.645 25.8998 64.475C25.8998 65.295 25.7298 65.985 25.3898 66.545C25.0598 67.095 24.6298 67.51 24.0998 67.79C23.5798 68.06 23.0298 68.195 22.4498 68.195ZM22.4498 67.52C23.0998 67.52 23.5998 67.265 23.9498 66.755C24.2998 66.235 24.4748 65.475 24.4748 64.475C24.4748 63.465 24.2998 62.695 23.9498 62.165C23.5998 61.635 23.0998 61.37 22.4498 61.37C21.7998 61.37 21.2998 61.635 20.9498 62.165C20.6098 62.695 20.4398 63.465 20.4398 64.475C20.4398 65.475 20.6098 66.235 20.9498 66.755C21.2998 67.265 21.7998 67.52 22.4498 67.52ZM31.1808 61.415V60.875H34.1058V61.415L33.2958 61.58L30.8808 67.955C30.3808 69.285 29.8958 70.245 29.4258 70.835C28.9658 71.435 28.4258 71.735 27.8058 71.735C27.4358 71.735 27.1108 71.64 26.8308 71.45C26.5608 71.27 26.4258 71.035 26.4258 70.745C26.4758 70.525 26.5958 70.36 26.7858 70.25C26.9858 70.14 27.2008 70.085 27.4308 70.085C27.6308 70.085 27.8158 70.125 27.9858 70.205C28.1558 70.295 28.3408 70.445 28.5408 70.655L28.6158 70.73C28.9358 70.46 29.2058 70.13 29.4258 69.74C29.6458 69.36 29.8258 68.97 29.9658 68.57L30.0258 68.39L27.3108 61.535L26.4858 61.415V60.875H30.0858V61.43L28.7658 61.58L30.6408 66.695L32.4858 61.595L31.1808 61.415ZM40.6025 68.195C40.1825 68.195 39.7975 68.145 39.4475 68.045C39.0975 67.955 38.7375 67.815 38.3675 67.625L38.3075 65.975H39.1325L39.4175 67.28C39.7675 67.44 40.1725 67.52 40.6325 67.52C41.2025 67.52 41.6225 67.415 41.8925 67.205C42.1725 66.995 42.3125 66.72 42.3125 66.38C42.3125 66.06 42.1975 65.805 41.9675 65.615C41.7375 65.415 41.3875 65.235 40.9175 65.075L40.2275 64.82C39.6775 64.62 39.2375 64.36 38.9075 64.04C38.5775 63.72 38.4125 63.305 38.4125 62.795C38.4125 62.425 38.5125 62.08 38.7125 61.76C38.9125 61.44 39.2075 61.18 39.5975 60.98C39.9875 60.78 40.4625 60.68 41.0225 60.68C41.4325 60.68 41.8025 60.735 42.1325 60.845C42.4725 60.945 42.8025 61.095 43.1225 61.295L43.0625 62.825H42.2825L42.0425 61.625C41.7025 61.455 41.3575 61.37 41.0075 61.37C40.5475 61.37 40.1975 61.465 39.9575 61.655C39.7275 61.835 39.6125 62.08 39.6125 62.39C39.6125 62.72 39.7125 62.97 39.9125 63.14C40.1225 63.31 40.4825 63.49 40.9925 63.68L41.4575 63.845C42.2075 64.125 42.7375 64.445 43.0475 64.805C43.3675 65.165 43.5275 65.58 43.5275 66.05C43.5275 66.43 43.4175 66.785 43.1975 67.115C42.9775 67.435 42.6525 67.695 42.2225 67.895C41.7925 68.095 41.2525 68.195 40.6025 68.195ZM47.1814 68.195C46.6614 68.195 46.2464 68.055 45.9364 67.775C45.6264 67.495 45.4714 67.065 45.4714 66.485C45.4714 66.295 45.4714 66.11 45.4714 65.93C45.4814 65.74 45.4864 65.5 45.4864 65.21V61.67H44.2414V61.01L45.5764 60.845L45.9664 58.835H46.8664L46.7764 60.875H48.8014V61.67H46.7614V66.32C46.7614 66.7 46.8364 66.98 46.9864 67.16C47.1364 67.33 47.3364 67.415 47.5864 67.415C47.7564 67.415 47.9164 67.38 48.0664 67.31C48.2264 67.24 48.4014 67.14 48.5914 67.01L48.9514 67.4C48.5414 67.93 47.9514 68.195 47.1814 68.195ZM55.2244 68.15C54.8644 68.15 54.5644 68.045 54.3244 67.835C54.0844 67.625 53.9344 67.345 53.8744 66.995C53.4644 67.395 53.1044 67.695 52.7944 67.895C52.4844 68.095 52.1094 68.195 51.6694 68.195C51.1194 68.195 50.6444 68.04 50.2444 67.73C49.8544 67.41 49.6594 66.94 49.6594 66.32C49.6594 66.03 49.7244 65.76 49.8544 65.51C49.9944 65.26 50.2444 65.015 50.6044 64.775C50.9644 64.535 51.4794 64.295 52.1494 64.055C52.3794 63.975 52.6444 63.89 52.9444 63.8C53.2444 63.71 53.5444 63.63 53.8444 63.56V63.185C53.8444 62.455 53.7344 61.97 53.5144 61.73C53.2944 61.49 52.9344 61.37 52.4344 61.37C52.3244 61.37 52.1994 61.375 52.0594 61.385C51.9294 61.395 51.7844 61.42 51.6244 61.46L51.3394 62.435C51.1994 62.915 50.9394 63.155 50.5594 63.155C50.1394 63.155 49.9044 62.95 49.8544 62.54C49.9944 61.97 50.3244 61.52 50.8444 61.19C51.3744 60.85 52.0194 60.68 52.7794 60.68C53.5694 60.68 54.1544 60.88 54.5344 61.28C54.9144 61.67 55.1044 62.34 55.1044 63.29V66.485C55.1044 66.805 55.1544 67.035 55.2544 67.175C55.3544 67.305 55.4844 67.37 55.6444 67.37C55.7744 67.37 55.8844 67.34 55.9744 67.28C56.0644 67.22 56.1494 67.14 56.2294 67.04L56.5294 67.37C56.3494 67.66 56.1494 67.865 55.9294 67.985C55.7194 68.095 55.4844 68.15 55.2244 68.15ZM50.9944 66.095C50.9944 66.495 51.1094 66.78 51.3394 66.95C51.5694 67.12 51.8544 67.205 52.1944 67.205C52.3444 67.205 52.4844 67.185 52.6144 67.145C52.7544 67.105 52.9194 67.03 53.1094 66.92C53.2994 66.8 53.5444 66.63 53.8444 66.41V64.115C53.5844 64.185 53.3294 64.265 53.0794 64.355C52.8294 64.435 52.6244 64.505 52.4644 64.565C52.0344 64.735 51.7144 64.91 51.5044 65.09C51.2944 65.27 51.1544 65.445 51.0844 65.615C51.0244 65.785 50.9944 65.945 50.9944 66.095ZM60.6212 68.195C59.5912 68.195 58.7712 67.86 58.1612 67.19C57.5512 66.52 57.2462 65.61 57.2462 64.46C57.2462 63.67 57.4062 62.995 57.7262 62.435C58.0562 61.865 58.4862 61.43 59.0162 61.13C59.5462 60.83 60.1112 60.68 60.7112 60.68C61.1612 60.68 61.5762 60.765 61.9562 60.935C62.3362 61.105 62.6512 61.34 62.9012 61.64C63.1512 61.93 63.3062 62.26 63.3662 62.63C63.2962 63.01 63.0662 63.2 62.6762 63.2C62.4262 63.2 62.2362 63.135 62.1062 63.005C61.9862 62.865 61.9012 62.69 61.8512 62.48L61.5812 61.49C61.4412 61.44 61.3012 61.41 61.1612 61.4C61.0312 61.38 60.9012 61.37 60.7712 61.37C60.1312 61.37 59.6012 61.62 59.1812 62.12C58.7712 62.62 58.5662 63.35 58.5662 64.31C58.5662 65.25 58.7912 65.97 59.2412 66.47C59.6912 66.97 60.2662 67.22 60.9662 67.22C61.3962 67.22 61.7912 67.125 62.1512 66.935C62.5112 66.735 62.8062 66.45 63.0362 66.08L63.4112 66.275C63.2012 66.895 62.8612 67.37 62.3912 67.7C61.9212 68.03 61.3312 68.195 60.6212 68.195ZM64.1543 68V67.46L65.3543 67.25C65.3643 66.85 65.3693 66.45 65.3693 66.05C65.3793 65.64 65.3843 65.24 65.3843 64.85V58.265L64.1543 58.115V57.59L66.4943 56.915L66.7043 57.035L66.6443 59.165V64.4L69.2093 61.73L68.0993 61.46V60.875H71.5943V61.46L70.1843 61.67L68.5343 63.365L70.9943 67.28L71.9843 67.46V68H69.9443L67.6343 64.28L66.6443 65.3C66.6443 65.62 66.6443 65.945 66.6443 66.275C66.6543 66.605 66.6643 66.93 66.6743 67.25L67.8743 67.46V68H64.1543ZM76.0834 68V67.46L77.1934 67.25C77.2034 66.87 77.2084 66.46 77.2084 66.02C77.2184 65.58 77.2234 65.19 77.2234 64.85V64.13C77.2234 63.72 77.2184 63.38 77.2084 63.11C77.2084 62.84 77.1984 62.555 77.1784 62.255L75.9934 62.12V61.595L78.0934 60.68L78.3184 60.83L78.4384 62.045C78.7884 61.645 79.1984 61.32 79.6684 61.07C80.1384 60.81 80.6034 60.68 81.0634 60.68C81.5334 60.68 81.9134 60.79 82.2034 61.01C82.5034 61.23 82.7184 61.59 82.8484 62.09C83.2284 61.62 83.6534 61.27 84.1234 61.04C84.5934 60.8 85.0734 60.68 85.5634 60.68C86.1734 60.68 86.6434 60.885 86.9734 61.295C87.3134 61.705 87.4834 62.375 87.4834 63.305V64.85C87.4834 65.19 87.4834 65.58 87.4834 66.02C87.4934 66.46 87.5034 66.87 87.5134 67.25L88.5634 67.46V68H85.0834V67.46L86.1934 67.25C86.2034 66.88 86.2084 66.475 86.2084 66.035C86.2184 65.585 86.2234 65.19 86.2234 64.85V63.545C86.2234 62.845 86.1234 62.375 85.9234 62.135C85.7234 61.885 85.4034 61.76 84.9634 61.76C84.6534 61.76 84.3334 61.83 84.0034 61.97C83.6834 62.11 83.3334 62.355 82.9534 62.705C82.9634 62.815 82.9684 62.935 82.9684 63.065C82.9784 63.185 82.9834 63.315 82.9834 63.455V64.85C82.9834 65.19 82.9834 65.58 82.9834 66.02C82.9934 66.46 83.0034 66.87 83.0134 67.25L84.0634 67.46V68H80.5834V67.46L81.6934 67.25C81.7034 66.88 81.7084 66.475 81.7084 66.035C81.7184 65.585 81.7234 65.19 81.7234 64.85V63.575C81.7234 62.895 81.6284 62.425 81.4384 62.165C81.2484 61.895 80.9334 61.76 80.4934 61.76C80.1534 61.76 79.8284 61.83 79.5184 61.97C79.2084 62.11 78.8684 62.34 78.4984 62.66V64.85C78.4984 65.18 78.4984 65.57 78.4984 66.02C78.5084 66.46 78.5184 66.87 78.5284 67.25L79.5634 67.46V68H76.0834ZM95.2439 68.15C94.8839 68.15 94.5839 68.045 94.3439 67.835C94.1039 67.625 93.9539 67.345 93.8939 66.995C93.4839 67.395 93.1239 67.695 92.8139 67.895C92.5039 68.095 92.1289 68.195 91.6889 68.195C91.1389 68.195 90.6639 68.04 90.2639 67.73C89.8739 67.41 89.6789 66.94 89.6789 66.32C89.6789 66.03 89.7439 65.76 89.8739 65.51C90.0139 65.26 90.2639 65.015 90.6239 64.775C90.9839 64.535 91.4989 64.295 92.1689 64.055C92.3989 63.975 92.6639 63.89 92.9639 63.8C93.2639 63.71 93.5639 63.63 93.8639 63.56V63.185C93.8639 62.455 93.7539 61.97 93.5339 61.73C93.3139 61.49 92.9539 61.37 92.4539 61.37C92.3439 61.37 92.2189 61.375 92.0789 61.385C91.9489 61.395 91.8039 61.42 91.6439 61.46L91.3589 62.435C91.2189 62.915 90.9589 63.155 90.5789 63.155C90.1589 63.155 89.9239 62.95 89.8739 62.54C90.0139 61.97 90.3439 61.52 90.8639 61.19C91.3939 60.85 92.0389 60.68 92.7989 60.68C93.5889 60.68 94.1739 60.88 94.5539 61.28C94.9339 61.67 95.1239 62.34 95.1239 63.29V66.485C95.1239 66.805 95.1739 67.035 95.2739 67.175C95.3739 67.305 95.5039 67.37 95.6639 67.37C95.7939 67.37 95.9039 67.34 95.9939 67.28C96.0839 67.22 96.1689 67.14 96.2489 67.04L96.5489 67.37C96.3689 67.66 96.1689 67.865 95.9489 67.985C95.7389 68.095 95.5039 68.15 95.2439 68.15ZM91.0139 66.095C91.0139 66.495 91.1289 66.78 91.3589 66.95C91.5889 67.12 91.8739 67.205 92.2139 67.205C92.3639 67.205 92.5039 67.185 92.6339 67.145C92.7739 67.105 92.9389 67.03 93.1289 66.92C93.3189 66.8 93.5639 66.63 93.8639 66.41V64.115C93.6039 64.185 93.3489 64.265 93.0989 64.355C92.8489 64.435 92.6439 64.505 92.4839 64.565C92.0539 64.735 91.7339 64.91 91.5239 65.09C91.3139 65.27 91.1739 65.445 91.1039 65.615C91.0439 65.785 91.0139 65.945 91.0139 66.095ZM100.641 68.195C99.6107 68.195 98.7907 67.86 98.1807 67.19C97.5707 66.52 97.2657 65.61 97.2657 64.46C97.2657 63.67 97.4257 62.995 97.7457 62.435C98.0757 61.865 98.5057 61.43 99.0357 61.13C99.5657 60.83 100.131 60.68 100.731 60.68C101.181 60.68 101.596 60.765 101.976 60.935C102.356 61.105 102.671 61.34 102.921 61.64C103.171 61.93 103.326 62.26 103.386 62.63C103.316 63.01 103.086 63.2 102.696 63.2C102.446 63.2 102.256 63.135 102.126 63.005C102.006 62.865 101.921 62.69 101.871 62.48L101.601 61.49C101.461 61.44 101.321 61.41 101.181 61.4C101.051 61.38 100.921 61.37 100.791 61.37C100.151 61.37 99.6207 61.62 99.2007 62.12C98.7907 62.62 98.5857 63.35 98.5857 64.31C98.5857 65.25 98.8107 65.97 99.2607 66.47C99.7107 66.97 100.286 67.22 100.986 67.22C101.416 67.22 101.811 67.125 102.171 66.935C102.531 66.735 102.826 66.45 103.056 66.08L103.431 66.275C103.221 66.895 102.881 67.37 102.411 67.7C101.941 68.03 101.351 68.195 100.641 68.195ZM104.249 68V67.46L105.374 67.25C105.384 66.87 105.389 66.46 105.389 66.02C105.399 65.57 105.404 65.18 105.404 64.85V58.265L104.174 58.115V57.59L106.469 56.915L106.679 57.035L106.619 59.165V62.06C106.989 61.65 107.419 61.32 107.909 61.07C108.399 60.81 108.884 60.68 109.364 60.68C110.014 60.68 110.494 60.9 110.804 61.34C111.124 61.77 111.284 62.475 111.284 63.455V64.85C111.284 65.19 111.284 65.58 111.284 66.02C111.294 66.46 111.304 66.87 111.314 67.25L112.364 67.46V68H108.884V67.46L109.979 67.265C109.989 66.885 109.994 66.475 109.994 66.035C110.004 65.585 110.009 65.19 110.009 64.85V63.575C110.009 62.885 109.914 62.41 109.724 62.15C109.534 61.89 109.219 61.76 108.779 61.76C108.409 61.76 108.059 61.835 107.729 61.985C107.399 62.135 107.044 62.385 106.664 62.735V64.85C106.664 65.18 106.664 65.57 106.664 66.02C106.674 66.46 106.684 66.87 106.694 67.25L107.729 67.46V68H104.249ZM113.333 68V67.46L114.458 67.25C114.468 66.87 114.473 66.46 114.473 66.02C114.483 65.57 114.488 65.18 114.488 64.85V64.145C114.488 63.735 114.483 63.395 114.473 63.125C114.473 62.845 114.463 62.555 114.443 62.255L113.243 62.12V61.595L115.553 60.68L115.778 60.83L115.733 62.87V64.85C115.733 65.18 115.733 65.57 115.733 66.02C115.743 66.46 115.753 66.87 115.763 67.25L116.813 67.46V68H113.333ZM115.103 59.03C114.823 59.03 114.583 58.94 114.383 58.76C114.193 58.58 114.098 58.35 114.098 58.07C114.098 57.78 114.193 57.55 114.383 57.38C114.583 57.2 114.823 57.11 115.103 57.11C115.383 57.11 115.618 57.2 115.808 57.38C116.008 57.55 116.108 57.78 116.108 58.07C116.108 58.35 116.008 58.58 115.808 58.76C115.618 58.94 115.383 59.03 115.103 59.03ZM117.875 68V67.46L118.985 67.25C118.995 66.87 119 66.46 119 66.02C119.01 65.58 119.015 65.19 119.015 64.85V64.13C119.015 63.72 119.01 63.38 119 63.11C119 62.84 118.99 62.555 118.97 62.255L117.785 62.12V61.595L119.885 60.68L120.11 60.83L120.23 62.03C120.6 61.63 121.025 61.305 121.505 61.055C121.985 60.805 122.455 60.68 122.915 60.68C123.565 60.68 124.045 60.9 124.355 61.34C124.675 61.77 124.835 62.475 124.835 63.455V64.85C124.835 65.19 124.835 65.58 124.835 66.02C124.845 66.46 124.855 66.87 124.865 67.25L125.915 67.46V68H122.435V67.46L123.545 67.25C123.555 66.88 123.56 66.475 123.56 66.035C123.57 65.585 123.575 65.19 123.575 64.85V63.575C123.575 62.885 123.475 62.41 123.275 62.15C123.085 61.89 122.77 61.76 122.33 61.76C121.99 61.76 121.66 61.83 121.34 61.97C121.02 62.11 120.67 62.34 120.29 62.66V64.85C120.29 65.18 120.29 65.57 120.29 66.02C120.3 66.46 120.31 66.87 120.32 67.25L121.355 67.46V68H117.875ZM130.407 61.37C130.127 61.37 129.842 61.45 129.552 61.61C129.272 61.77 129.027 62.025 128.817 62.375C128.617 62.725 128.487 63.19 128.427 63.77H131.157C131.517 63.77 131.752 63.695 131.862 63.545C131.982 63.395 132.042 63.21 132.042 62.99C132.042 62.7 131.967 62.435 131.817 62.195C131.677 61.945 131.482 61.745 131.232 61.595C130.992 61.445 130.717 61.37 130.407 61.37ZM130.392 68.195C129.382 68.195 128.572 67.87 127.962 67.22C127.352 66.56 127.047 65.655 127.047 64.505C127.047 63.735 127.202 63.065 127.512 62.495C127.832 61.925 128.252 61.48 128.772 61.16C129.302 60.84 129.877 60.68 130.497 60.68C131.017 60.68 131.487 60.795 131.907 61.025C132.327 61.255 132.662 61.585 132.912 62.015C133.162 62.435 133.287 62.95 133.287 63.56C133.287 63.73 133.277 63.89 133.257 64.04C133.237 64.18 133.212 64.3 133.182 64.4H128.397C128.417 65.32 128.647 66.02 129.087 66.5C129.527 66.98 130.107 67.22 130.827 67.22C131.307 67.22 131.707 67.125 132.027 66.935C132.347 66.735 132.642 66.48 132.912 66.17L133.272 66.455C132.992 66.985 132.612 67.41 132.132 67.73C131.652 68.04 131.072 68.195 130.392 68.195Z" fill="black"/>
<path d="M53.76 11.88V10.24H65.08V11.88L61.4 12.32C61.3733 14 61.3467 15.7067 61.32 17.44C61.32 19.1733 61.32 20.9067 61.32 22.64V24.6C61.32 26.3067 61.32 28.0267 61.32 29.76C61.3467 31.4667 61.3733 33.1867 61.4 34.92L65.08 35.36V37H53.76V35.36L57.44 34.92C57.4933 33.24 57.52 31.5333 57.52 29.8C57.52 28.0667 57.52 26.3333 57.52 24.6V22.64C57.52 20.9067 57.52 19.1867 57.52 17.48C57.52 15.7467 57.4933 14.0267 57.44 12.32L53.76 11.88ZM67.4438 11.88V10.24H78.3638V12.04L74.5238 12.4L81.2438 31.56L87.7238 12.44L84.2038 12.04V10.24H93.4438V11.88L89.9638 12.36L81.5238 37.28H79.7638L70.4438 12.24L67.4438 11.88ZM95.3569 37V35.36L98.9569 34.84V12.32L95.3569 11.88V10.24H102.757L111.717 32.24L120.197 10.24H128.077V11.88L124.397 12.32C124.37 14 124.344 15.7067 124.317 17.44C124.317 19.1733 124.317 20.9067 124.317 22.64V24.6C124.317 26.3067 124.317 28.0267 124.317 29.76C124.344 31.4667 124.37 33.1867 124.397 34.92L128.077 35.36V37H117.197V35.36L120.557 34.92C120.61 33.24 120.637 31.5333 120.637 29.8C120.637 28.0667 120.637 26.3467 120.637 24.64V14.68L111.957 37H109.957L100.797 14.68L101.037 22.24V34.84L104.317 35.36V37H95.3569Z" fill="black"/>
<path d="M5 6V34C5 36.7614 7.23858 39 10 39H26C28.7614 39 31 36.7614 31 34V6" stroke="black" stroke-width="4"/>
<rect x="9" y="29" width="18" height="6" rx="1" fill="#B8BB26"/>
<rect x="9" y="21" width="18" height="6" rx="1" fill="#B8BB26"/>
<rect x="9" y="13" width="18" height="6" rx="1" fill="#B8BB26"/>
</svg>
